<svg width="193" height="249" viewBox="0 0 193 249" fill="none" xmlns="http://www.w3.org/2000/svg">
<path d="M4.5032 73C-7.9968 54.5 15.5032 -50 15.5032 -50L28.5032 -61.5H57.0032L167.503 -71L217.003 21.5L191.503 248.5C191.503 248.5 184.503 189 175.503 170C166.503 151 133.503 145 118.003 133.5C103.436 122.692 73.8547 84.5047 110.188 74.5507C78.2649 78.6866 12.6183 85.0104 4.5032 73Z" fill="#0047FF"/>
<path d="M26.5032 63C14.0032 44.5 37.5032 -60 37.5032 -60L50.5032 -71.5H79.0032L189.503 -81L239.003 11.5L213.503 238.5C213.503 238.5 206.503 179 197.503 160C188.503 141 155.503 135 140.003 123.5C125.436 112.692 95.8547 74.5047 132.188 64.5507C100.265 68.6866 34.6183 75.0104 26.5032 63Z" fill="#001AFF"/>
<path d="M53.5032 48C41.0032 29.5 64.5032 -75 64.5032 -75L77.5032 -86.5H106.003L216.503 -96L266.003 -3.5L240.503 223.5C240.503 223.5 233.503 164 224.503 145C215.503 126 182.503 120 167.003 108.5C152.436 97.6923 122.855 59.5047 159.188 49.5507C127.265 53.6866 61.6183 60.0104 53.5032 48Z" fill="#3411C2"/>
<path d="M80.5032 33C68.0032 14.5 91.5032 -90 91.5032 -90L104.503 -101.5H133.003L243.503 -111L293.003 -18.5L267.503 208.5C267.503 208.5 260.503 149 251.503 130C242.503 111 209.503 105 194.003 93.5C179.436 82.6923 149.855 44.5047 186.188 34.5507C154.265 38.6866 88.6183 45.0104 80.5032 33Z" fill="#5200D9"/>
<path d="M93.6664 26C81.1664 7.5 104.666 -97 104.666 -97L117.666 -108.5H146.166L256.666 -118L306.166 -25.5L280.666 201.5C280.666 201.5 273.666 142 264.666 123C255.666 104 222.666 98 207.166 86.5C192.6 75.6923 163.018 37.5047 199.352 27.5507C167.428 31.6866 101.782 38.0104 93.6664 26Z" fill="#4D00CA"/>
</svg>
