<svg width="250" height="250" viewBox="0 0 250 250" fill="none" xmlns="http://www.w3.org/2000/svg">
<mask id="mask0_1_5" style="mask-type:alpha" maskUnits="userSpaceOnUse" x="0" y="0" width="250" height="250">
<circle cx="125" cy="125" r="125" fill="#D9D9D9"/>
</mask>
<g mask="url(#mask0_1_5)">
<path d="M175 102C175 129.614 152.614 152 125 152C97.3858 152 75 129.614 75 102C75 74.3858 97.3858 52 125 52C152.614 52 175 74.3858 175 102Z" fill="#0047FF"/>
<path d="M213 208C213 247.765 173.601 280 125 280C76.3989 280 37 247.765 37 208C37 168.235 76.3989 136 125 136C173.601 136 213 168.235 213 208Z" fill="#0047FF"/>
</g>
</svg>
